<svg xmlns="http://www.w3.org/2000/svg" width="1640" height="1100" viewBox="0 0 1640 1100" font-family="Arial, Helvetica, sans-serif" font-size="15" fill="none" stroke="#000" stroke-width="2">
  <rect x="0" y="0" width="1640" height="1100" fill="#fff" stroke="none"/>

  <text x="40" y="42" font-size="25" font-weight="bold" fill="#000" stroke="none">LE-01 · Adjustable Leather Lead 2.60 m · 20 mm · Bellowerk Manufaktur · v3.0 · 18 Sep 2026</text>
  <text x="40" y="68" font-size="15" fill="#000" stroke="none">Sheet 1/3 — general arrangement. Length to scale 1:5. Strap width, hooks and rings drawn enlarged for legibility — THE FIGURES ARE BINDING, not the picture.</text>
  <text x="40" y="90" font-size="15" fill="#000" stroke="none">Sheet 2/3 (LE-01-detail-flechtung) is the 1:1 check sheet · sheet 3/3 (LE-01-flechtung-schritte) shows step by step how the knot is tied.</text>
  <text x="40" y="112" font-size="15" fill="#000" stroke="none">Reverse-engineered from the golden sample, measured 18 Sep 2026. Every ring and hook is held by BLEED KNOTS — no stitching, no rivets, strap never cut into strands.</text>

  <!-- ====================== PLAN VIEW ====================== -->
  <!-- scale 1 cm = 5 px, origin x = 160 = inner edge of hook A eye -->
  <g id="lead">
    <!-- strap -->
    <rect x="160" y="210" width="1240" height="26" stroke-width="2.5"/>

    <!-- hook A -->
    <g transform="translate(160,223)">
      <circle cx="-14" cy="0" r="14" stroke-width="2.5"/>
      <path d="M -28 0 h -12 a 9 9 0 0 1 -9 -9 v -4" stroke-width="2.5"/>
      <path d="M -49 -13 a 13 13 0 1 0 -18 13 a 13 13 0 1 0 18 13 v -9" stroke-width="2.5"/>
    </g>
    <text x="78" y="196" fill="#000" stroke="none" font-size="14" font-weight="bold">hook A</text>

    <!-- hook B -->
    <g transform="translate(1400,223)">
      <circle cx="14" cy="0" r="14" stroke-width="2.5"/>
      <path d="M 28 0 h 12 a 9 9 0 0 0 9 -9 v -4" stroke-width="2.5"/>
      <path d="M 49 -13 a 13 13 0 1 1 18 13 a 13 13 0 1 1 -18 13 v -9" stroke-width="2.5"/>
    </g>
    <text x="1418" y="196" fill="#000" stroke="none" font-size="14" font-weight="bold">hook B</text>

    <!-- rings: 1 and 2 = outer 30 mm ("3 cm"), 3 = outer 40 mm ("4 cm") -->
    <g stroke-width="3">
      <circle cx="560" cy="223" r="17"/>
      <circle cx="1000" cy="223" r="17"/>
      <circle cx="1385" cy="223" r="23"/>
    </g>
    <g stroke-width="1.2">
      <circle cx="560" cy="223" r="12"/>
      <circle cx="1000" cy="223" r="12"/>
      <circle cx="1385" cy="223" r="17"/>
    </g>
    <text x="536" y="196" fill="#000" stroke="none" font-size="14" font-weight="bold">ring 1</text>
    <text x="976" y="196" fill="#000" stroke="none" font-size="14" font-weight="bold">ring 2</text>
    <text x="1300" y="176" fill="#000" stroke="none" font-size="14" font-weight="bold">ring 3</text>
    <line x1="1370" y1="182" x2="1385" y2="200" stroke-width="1"/>

    <!-- braid zones: 115 mm = 57.5 px. chevron pattern -->
    <g stroke-width="1.2">
      <!-- hook A, braid runs to the right -->
      <path d="M 160 212 l 9 24 l 9 -24 l 9 24 l 9 -24 l 9 24 l 9 -24 l 4 11"/>
      <path d="M 160 234 l 9 -24 l 9 24 l 9 -24 l 9 24 l 9 -24 l 9 24 l 4 -11"/>
      <!-- ring 1, braid runs to the right -->
      <path d="M 560 212 l 9 24 l 9 -24 l 9 24 l 9 -24 l 9 24 l 9 -24 l 4 11"/>
      <path d="M 560 234 l 9 -24 l 9 24 l 9 -24 l 9 24 l 9 -24 l 9 24 l 4 -11"/>
      <!-- ring 2, braid runs to the right -->
      <path d="M 1000 212 l 9 24 l 9 -24 l 9 24 l 9 -24 l 9 24 l 9 -24 l 4 11"/>
      <path d="M 1000 234 l 9 -24 l 9 24 l 9 -24 l 9 24 l 9 -24 l 9 24 l 4 -11"/>
      <!-- hook B / ring 3, braid runs to the left -->
      <path d="M 1385 212 l -9 24 l -9 -24 l -9 24 l -9 -24 l -9 24 l -9 -24 l -4 11"/>
      <path d="M 1385 234 l -9 -24 l -9 24 l -9 -24 l -9 24 l -9 -24 l -9 24 l -4 -11"/>
    </g>

    <!-- chicago screws, 10 mm after each braid -->
    <g stroke-width="1.5" fill="#000">
      <circle cx="223" cy="223" r="4"/>
      <circle cx="1322" cy="223" r="4"/>
    </g>

    <!-- brand patch PATCH-01, 110 x 20 mm, 2 screws -->
    <rect x="1247" y="211" width="55" height="24" rx="4" stroke-width="1.5"/>
    <g stroke-width="1.5" fill="#000"><circle cx="1256" cy="223" r="3.5"/><circle cx="1293" cy="223" r="3.5"/></g>
    <line x1="1274" y1="211" x2="1238" y2="162" stroke-width="1"/>
    <text x="1020" y="130" fill="#000" stroke="none" font-size="14">leather patch PATCH-01 PA-L, 110 × 18 mm</text>
    <text x="1020" y="150" fill="#000" stroke="none" font-size="14">2 Chicago screws 93 mm apart, outer end</text>
    <text x="1020" y="170" fill="#000" stroke="none" font-size="14">185 mm from the hook B eye</text>
  </g>

  <!-- ====================== DIMENSION CHAIN ====================== -->
  <g stroke-width="1.3">
    <!-- extension lines -->
    <g stroke-dasharray="4 4" stroke-width="0.8">
      <line x1="160" y1="240" x2="160" y2="470"/>
      <line x1="560" y1="240" x2="560" y2="330"/>
      <line x1="1000" y1="240" x2="1000" y2="380"/>
      <line x1="1385" y1="240" x2="1385" y2="430"/>
      <line x1="1400" y1="240" x2="1400" y2="470"/>
      <line x1="95" y1="240" x2="95" y2="520"/>
      <line x1="1465" y1="240" x2="1465" y2="520"/>
    </g>

    <line x1="160" y1="320" x2="560" y2="320"/>
    <path d="M 160 320 l 9 -4 v 8 z" fill="#000"/><path d="M 560 320 l -9 -4 v 8 z" fill="#000"/>
    <text x="360" y="312" text-anchor="middle" fill="#000" stroke="none" font-weight="bold">80 cm</text>

    <line x1="160" y1="370" x2="1000" y2="370"/>
    <path d="M 160 370 l 9 -4 v 8 z" fill="#000"/><path d="M 1000 370 l -9 -4 v 8 z" fill="#000"/>
    <text x="580" y="362" text-anchor="middle" fill="#000" stroke="none" font-weight="bold">168 cm</text>

    <line x1="160" y1="420" x2="1385" y2="420"/>
    <path d="M 160 420 l 9 -4 v 8 z" fill="#000"/><path d="M 1385 420 l -9 -4 v 8 z" fill="#000"/>
    <text x="770" y="412" text-anchor="middle" fill="#000" stroke="none" font-weight="bold">245 cm</text>

    <line x1="160" y1="470" x2="1400" y2="470"/>
    <path d="M 160 470 l 9 -4 v 8 z" fill="#000"/><path d="M 1400 470 l -9 -4 v 8 z" fill="#000"/>
    <text x="780" y="462" text-anchor="middle" fill="#000" stroke="none" font-weight="bold">248 cm — hook eye to hook eye</text>

    <line x1="95" y1="520" x2="1465" y2="520"/>
    <path d="M 95 520 l 9 -4 v 8 z" fill="#000"/><path d="M 1465 520 l -9 -4 v 8 z" fill="#000"/>
    <text x="780" y="512" text-anchor="middle" fill="#000" stroke="none" font-size="17" font-weight="bold">260 cm — overall, tip of hook A to tip of hook B</text>

    <text x="40" y="552" fill="#000" stroke="none" font-size="14">All ring positions are measured from the INNER EDGE OF THE HOOK A EYE (datum 0) to the RING CENTRE. Tolerance ±1 cm. Rings are fixed and must not slide.</text>
  </g>

  <!-- ====================== DETAIL A: hook B end ====================== -->
  <g transform="translate(40,600)">
    <rect x="0" y="0" width="720" height="360" stroke-width="1" stroke="#888"/>
    <text x="14" y="26" font-weight="bold" fill="#000" stroke="none">DETAIL A — hook B end, scale 1:1.5 · ring 3 and hook B in ONE fold</text>

    <!-- strap, 20 mm wide = 50 px at 1:1.5 (1 mm = 2.5 px); open on the ring side -->
    <g stroke-width="2.5">
      <line x1="30" y1="120" x2="450" y2="120"/>
      <line x1="30" y1="170" x2="450" y2="170"/>
      <line x1="30" y1="120" x2="30" y2="170"/>
    </g>
    <!-- braid 115 mm = 287 px -->
    <g stroke-width="1.3">
      <path d="M 163 120 l 24 50 l 24 -50 l 24 50 l 24 -50 l 24 50 l 24 -50 l 24 50 l 24 -50 l 24 50 l 24 -50 l 17 35"/>
      <path d="M 163 170 l 24 -50 l 24 50 l 24 -50 l 24 50 l 24 -50 l 24 50 l 24 -50 l 24 50 l 24 -50 l 24 50 l 17 -35"/>
    </g>
    <!-- ring 3, outer 40 mm = 100 px -->
    <circle cx="450" cy="145" r="50" stroke-width="3"/><circle cx="450" cy="145" r="37.5" stroke-width="1.2"/>
    <!-- hook B eye + body, ring centre to hook eye = 30 mm = 75 px -->
    <circle cx="525" cy="145" r="26" stroke-width="2.5"/>
    <path d="M 551 145 h 22 a 14 14 0 0 0 14 -14 v -6" stroke-width="2.5"/>
    <path d="M 587 125 a 20 20 0 1 1 28 20 a 20 20 0 1 1 -28 20 v -14" stroke-width="2.5"/>
    <!-- screw -->
    <circle cx="138" cy="145" r="9" stroke-width="1.5" fill="#000"/>

    <g stroke-width="1.2">
      <line x1="163" y1="230" x2="450" y2="230"/>
      <path d="M 163 230 l 8 -4 v 8 z" fill="#000"/><path d="M 450 230 l -8 -4 v 8 z" fill="#000"/>
      <text x="306" y="250" text-anchor="middle" fill="#000" stroke="none" font-size="13">knot chain 115 mm · 5–6 V</text>

      <line x1="138" y1="272" x2="163" y2="272"/>
      <path d="M 138 272 l 8 -4 v 8 z" fill="#000"/><path d="M 163 272 l -8 -4 v 8 z" fill="#000"/>
      <text x="130" y="292" text-anchor="middle" fill="#000" stroke="none" font-size="13">10 mm</text>

      <line x1="450" y1="272" x2="525" y2="272"/>
      <path d="M 450 272 l 8 -4 v 8 z" fill="#000"/><path d="M 525 272 l -8 -4 v 8 z" fill="#000"/>
      <text x="487" y="292" text-anchor="middle" fill="#000" stroke="none" font-size="13">30 mm</text>
    </g>
    <text x="14" y="322" fill="#000" stroke="none" font-size="13">Strap end passes through ring 3 AND the hook eye, then folds back approx. 150 mm. Tail and standing part are</text>
    <text x="14" y="340" fill="#000" stroke="none" font-size="13">locked together by a chain of bleed knots over 115 mm (5–6 V), then 1 Chicago screw. See sheets 2 and 3.</text>
  </g>

  <!-- ====================== DETAIL B: mid ring ====================== -->
  <g transform="translate(790,600)">
    <rect x="0" y="0" width="520" height="360" stroke-width="1" stroke="#888"/>
    <text x="14" y="26" font-weight="bold" fill="#000" stroke="none">DETAIL B — ring 1 and ring 2, scale 1:1.5 · ONE knot, no screw</text>

    <!-- continuous strap, open on the ring side -->
    <g stroke-width="2.5">
      <line x1="100" y1="120" x2="500" y2="120"/>
      <line x1="100" y1="170" x2="500" y2="170"/>
      <line x1="500" y1="120" x2="500" y2="170"/>
    </g>
    <!-- ring, outer 30 mm = 75 px -->
    <circle cx="100" cy="145" r="37.5" stroke-width="3"/><circle cx="100" cy="145" r="25" stroke-width="1.2"/>
    <!-- braid over the doubled section -->
    <g stroke-width="1.3">
      <path d="M 140 120 l 24 50 l 24 -50 l 24 50 l 24 -50 l 24 50 l 24 -50 l 24 50 l 24 -50 l 24 50 l 24 -50 l 17 35"/>
      <path d="M 140 170 l 24 -50 l 24 50 l 24 -50 l 24 50 l 24 -50 l 24 50 l 24 -50 l 24 50 l 24 -50 l 24 50 l 17 -35"/>
    </g>
    

    <g stroke-width="1.2">
      <line x1="140" y1="230" x2="427" y2="230"/>
      <path d="M 140 230 l 8 -4 v 8 z" fill="#000"/><path d="M 427 230 l -8 -4 v 8 z" fill="#000"/>
      <text x="283" y="250" text-anchor="middle" fill="#000" stroke="none" font-size="13">knot chain 115 mm · 5–6 V</text>
    </g>
    <text x="14" y="288" fill="#000" stroke="none" font-size="13">ONE continuous strap. A single 30 mm lengthwise slit is cut, the</text>
    <text x="14" y="306" fill="#000" stroke="none" font-size="13">ring is threaded on, and the whole tail of the lead is pulled</text>
    <text x="14" y="324" fill="#000" stroke="none" font-size="13">through that slit and tightened — one bleed knot. NO Chicago</text>
    <text x="14" y="342" fill="#000" stroke="none" font-size="13">screw here; the knot alone holds the ring, as on the sample.</text>
  </g>

  <!-- ====================== SPEC BLOCK ====================== -->
  <g transform="translate(1340,600)">
    <rect x="0" y="0" width="260" height="360" stroke-width="1" stroke="#888"/>
    <text x="12" y="26" font-weight="bold" fill="#000" stroke="none">Key data</text>
    <text x="12" y="50" fill="#000" stroke="none" font-size="13">Strap 20 mm ±0.5, 3.5–4.0 mm</text>
    <text x="12" y="68" fill="#000" stroke="none" font-size="13">(9–10 oz) veg-tan oiled, 1 piece</text>
    <text x="12" y="86" fill="#000" stroke="none" font-size="13">Cut length approx. 285 cm —</text>
    <text x="12" y="104" fill="#000" stroke="none" font-size="13">set it on the first sample</text>
    <text x="12" y="132" fill="#000" stroke="none" font-size="13">Ring 1 + 2: solid brass, welded,</text>
    <text x="12" y="150" fill="#000" stroke="none" font-size="13">outer Ø 30 mm, wire Ø 5 mm</text>
    <text x="12" y="168" fill="#000" stroke="none" font-size="13">Ring 3: outer Ø 40 mm, wire 5 mm</text>
    <text x="12" y="186" fill="#000" stroke="none" font-size="13">all rings ≥ 3 kN</text>
    <text x="12" y="214" fill="#000" stroke="none" font-size="13">Hooks: solid brass swivel</text>
    <text x="12" y="232" fill="#000" stroke="none" font-size="13">trigger snap, length 60 mm,</text>
    <text x="12" y="250" fill="#000" stroke="none" font-size="13">eye for 20 mm strap, ≥ 2.0 kN</text>
    <text x="12" y="278" fill="#000" stroke="none" font-size="13">2 × Chicago screw solid brass</text>
    <text x="12" y="296" fill="#000" stroke="none" font-size="13">(hook ends only), head Ø 9 mm</text>
    <text x="12" y="314" fill="#000" stroke="none" font-size="13">Edges bevelled + burnished.</text>
    <text x="12" y="332" fill="#000" stroke="none" font-size="13">No stitching, no rivets.</text>
    <text x="12" y="350" fill="#000" stroke="none" font-size="13">Knotted attachment ≥ 2.0 kN.</text>
  </g>

  <!-- ====================== LEATHERWORKER'S LEGEND ====================== -->
  <g transform="translate(40,990)">
    <rect x="0" y="0" width="1560" height="86" stroke-width="1" stroke="#888"/>
    <text x="14" y="22" font-weight="bold" fill="#000" stroke="none" font-size="14">Line types and tools — read as a leather pattern</text>

    <g stroke-width="2.5"><line x1="20" y1="44" x2="90" y2="44"/></g>
    <text x="98" y="48" fill="#000" stroke="none" font-size="12.5">cut line (strap edge)</text>

    <g stroke-width="2" stroke-dasharray="9 5"><line x1="250" y1="44" x2="320" y2="44"/></g>
    <text x="328" y="48" fill="#000" stroke="none" font-size="12.5">fold line</text>

    <g stroke-width="2.5"><line x1="440" y1="44" x2="510" y2="44"/></g>
    <circle cx="440" cy="44" r="3.5" stroke-width="1.5"/><circle cx="510" cy="44" r="3.5" stroke-width="1.5"/>
    <text x="520" y="48" fill="#000" stroke="none" font-size="12.5">slit, ends punched Ø 2 mm</text>

    <circle cx="760" cy="44" r="7" stroke-width="1.5"/><line x1="752" y1="44" x2="768" y2="44" stroke-width="1"/><line x1="760" y1="36" x2="760" y2="52" stroke-width="1"/>
    <text x="776" y="48" fill="#000" stroke="none" font-size="12.5">hole centre — Chicago screw Ø 4.5 mm</text>

    <text x="14" y="72" fill="#000" stroke="none" font-size="12.5">Leather 3.5–4.0 mm = 9–10 oz · cut with strap cutter, edges bevelled both sides (beveller size 2) and burnished, no edge paint · slit ends punched with a Ø 2 mm round punch before slitting</text>
    <text x="1180" y="48" fill="#000" stroke="none" font-size="12.5" font-weight="bold">Grain side outside.</text>
    <text x="1180" y="72" fill="#000" stroke="none" font-size="12.5">Flesh side shows in every knot V.</text>
  </g>
</svg>
